<?xml version="1.0"?>
<svg xmlns="http://www.w3.org/2000/svg" id="Layer_5" enable-background="new 0 0 64 64" height="512px" viewBox="0 0 64 64" width="512px"><g transform="matrix(0.754719 0 0 0.754719 7.84898 7.84898)"><path d="m27 25.101v-1.101c0-1.302-.839-2.402-2-2.816v-6.184h2c1.103 0 2-.897 2-2v-2c0-1.103-.897-2-2-2h-22c-1.103 0-2 .897-2 2v2c0 1.103.897 2 2 2h2v6.184c-1.161.414-2 1.514-2 2.816v1.101c-2.279.464-4 2.484-4 4.899v24c0 2.163 1.389 3.992 3.315 4.687-.195.398-.315.84-.315 1.313 0 1.654 1.346 3 3 3s3-1.346 3-3c0-.352-.072-.686-.184-1h12.369c-.113.314-.185.648-.185 1 0 1.654 1.346 3 3 3s3-1.346 3-3c0-.473-.12-.915-.315-1.313 1.926-.695 3.315-2.524 3.315-4.687v-24c0-2.415-1.721-4.435-4-4.899zm-4-4.101h-2v-6h2zm-4-6v6h-6v-6zm-14-4h22l.001 2h-22.001zm6 4v6h-2v-6zm-3 8h16c.551 0 1 .448 1 1v1h-18v-1c0-.552.449-1 1-1zm-2 4h1 18 1c1.654 0 3 1.346 3 3v23h-2v-11c0-1.654-1.346-3-3-3s-3 1.346-3 3v11h-2v-11c0-1.654-1.346-3-3-3s-3 1.346-3 3v11h-2v-11c0-1.654-1.346-3-3-3s-3 1.346-3 3v11h-2v-23c0-1.654 1.346-3 3-3zm19 26h-2v-11c0-.552.449-1 1-1s1 .448 1 1zm-8 0h-2v-11c0-.552.449-1 1-1s1 .448 1 1zm-8 0h-2v-11c0-.552.449-1 1-1s1 .448 1 1zm-1 7c0 .552-.449 1-1 1s-1-.448-1-1 .449-1 1-1 1 .448 1 1zm17 1c-.551 0-1-.448-1-1s.449-1 1-1 1 .448 1 1-.449 1-1 1zm1-4h-20c-1.302 0-2.402-.839-2.816-2h25.631c-.413 1.161-1.513 2-2.815 2z" data-original="#000000" class="active-path" data-old_color="#000000" fill="#0088C7"/><path d="m8 37h16c1.654 0 3-1.346 3-3v-2c0-1.654-1.346-3-3-3h-16c-1.654 0-3 1.346-3 3v2c0 1.654 1.346 3 3 3zm-1-5c0-.552.449-1 1-1h16c.551 0 1 .448 1 1v2c0 .552-.449 1-1 1h-16c-.551 0-1-.448-1-1z" data-original="#000000" class="active-path" data-old_color="#000000" fill="#0088C7"/><path d="m62 24.659v-10.659c0-2.757-2.243-5-5-5h-1c0-4.411-3.589-8-8-8s-8 3.589-8 8h-1c-2.757 0-5 2.243-5 5v10.659c-.636 1.662-1 3.458-1 5.341v6c0 2.757 2.243 5 5 5h1v17c0 2.757 2.243 5 5 5 1.641 0 3.088-.806 4-2.031.912 1.225 2.359 2.031 4 2.031 2.757 0 5-2.243 5-5v-17h1c2.757 0 5-2.243 5-5v-6c0-1.883-.364-3.679-1-5.341zm-5-13.659c1.654 0 3 1.346 3 3v7.038c-1.881-2.512-4.518-4.427-7.585-5.373 1.621-1.077 2.821-2.731 3.322-4.665zm-1 18c0 .552-.449 1-1 1h-2c-.551 0-1-.448-1-1v-8.031c.619-.832.999-1.852 1-2.966 1.084.453 2.088 1.056 3 1.772zm-16 0v-9.226c.912-.715 1.916-1.318 3-1.772.001 1.114.38 2.134 1 2.966v8.032c0 .552-.449 1-1 1h-2c-.551 0-1-.448-1-1zm5-11v-.637c.965-.229 1.966-.363 3-.363s2.035.134 3 .363v.637c0 1.654-1.346 3-3 3s-3-1.346-3-3zm3-15c3.309 0 6 2.691 6 6s-2.691 6-6 6-6-2.691-6-6 2.691-6 6-6zm-12 11c0-1.654 1.346-3 3-3h1.263c.501 1.934 1.7 3.588 3.322 4.665-3.067.946-5.704 2.86-7.585 5.373zm2 25c-1.654 0-3-1.346-3-3v-6c0-3.151 1.128-6.042 3-8.295v7.295c0 .883.391 1.67 1 2.22v7.78zm17 19c0 1.654-1.346 3-3 3s-3-1.346-3-3v-22h-2v22c0 1.654-1.346 3-3 3s-3-1.346-3-3v-26h2c1.654 0 3-1.346 3-3v-6.424c.614.27 1.288.424 2 .424s1.386-.154 2-.424v6.424c0 1.654 1.346 3 3 3h2zm6-22c0 1.654-1.346 3-3 3h-1v-7.78c.609-.549 1-1.337 1-2.22v-7.295c1.872 2.253 3 5.144 3 8.295z" data-original="#000000" class="active-path" data-old_color="#000000" fill="#0088C7"/></g> </svg>
