<?xml version="1.0"?>
<svg xmlns="http://www.w3.org/2000/svg" height="512px" viewBox="0 0 512 512" width="512px"><g transform="matrix(0.895338 0 0 0.895338 26.7934 26.7934)"><path d="m365.070312 358.347656c-3.90625-3.90625-10.234374-3.90625-14.140624 0-3.90625 3.902344-3.90625 10.234375 0 14.140625l23.039062 23.039063c1.953125 1.953125 4.511719 2.929687 7.070312 2.929687 2.558594 0 5.117188-.976562 7.070313-2.929687l40.960937-40.957032c3.90625-3.90625 3.90625-10.238281 0-14.144531s-10.234374-3.90625-14.144531 0l-33.886719 33.890625zm0 0" data-original="#000000" class="active-path" data-old_color="#000000" fill="#0088C7"/><path d="m504.980469 263.421875-111.761719-34.890625c-1.023438-.347656-2.105469-.535156-3.210938-.535156-.003906 0-.011718 0-.015624 0-1.101563 0-2.1875.1875-3.207032.53125l-12.179687 3.804687c-8.726563-39.335937-27.703125-75.472656-55.300781-105.089843-6.128907-6.578126-15.507813-8.734376-23.898438-5.492188-8.386719 3.246094-13.875 11.148438-13.984375 20.140625l-.074219 6.152344c-.242187 19.785156-9.546875 38.136719-24.644531 50.105469v-40.289063c0-29.941406-6.992187-59.964844-20.222656-86.828125-13.226563-26.859375-32.765625-50.707031-56.5-68.957031-3.019531-2.324219-7.097657-2.726563-10.515625-1.046875-3.417969 1.683594-5.582032 5.164062-5.582032 8.972656 0 40.140625-13.863281 79.460938-39.042968 110.71875-28.035156 34.808594-44.574219 77.808594-47.257813 122.28125-7.332031-10.191406-12.378906-21.957031-14.664062-34.492188l-.761719-4.1875c-1.269531-6.953124-6.59375-12.1875-13.5625-13.34375-6.980469-1.152343-13.699219 2.089844-17.140625 8.261719-20.574219 36.917969-31.453125 78.773438-31.453125 121.039063v.179687c0 24.109375 4.421875 47.648438 13.144531 69.972657 1.542969 3.949218 5.316407 6.363281 9.316407 6.363281 1.210937 0 2.4375-.21875 3.636718-.6875 5.144532-2.007813 7.683594-7.808594 5.675782-12.953125-7.8125-19.996094-11.773438-41.085938-11.773438-62.695313v-.179687c0-35.632813 8.40625-70.945313 24.386719-102.734375 5.398437 22.738281 18.242187 43.097656 36.554687 57.78125 3 2.40625 7.113282 2.875 10.582032 1.214843 3.46875-1.667968 5.675781-5.171874 5.675781-9.015624v-11.6875c0-44.433594 15.347656-87.964844 43.222656-122.570313 23.644531-29.359375 38.328125-65.105469 42.34375-102.398437 34.066406 33.015624 53.9375 79.1875 53.9375 126.992187v57.910156c0 3.378907 1.707031 6.53125 4.539063 8.378907 2.832031 1.84375 6.40625 2.132812 9.5.769531 30.335937-13.390625 50.199218-43.472657 50.605468-76.632813l.074219-6.152344c.003906-.3125.015625-1.269531 1.199219-1.726562 1.1875-.460938 1.839844.238281 2.054687.46875 25.539063 27.410156 42.976563 60.945312 50.765625 97.441406l-80.421875 25.105469c-4.175781 1.304687-7.019531 5.171875-7.019531 9.546875v93.527344c0 9.386718.894531 18.597656 2.59375 27.550781-.285156-.734375-.558594-1.476563-.867188-2.203125-.042968-.109375-.089843-.21875-.136718-.328125-.011719-.019531-.019532-.035156-.027344-.054687-2.152344-5.03125-4.816406-9.898438-7.914062-14.472657-2.738282-4.703125-5.617188-9.445312-8.402344-14.03125-16.621094-27.382812-32.320313-53.25-25.929688-80.792969.839844-3.613281-.390625-7.394531-3.199218-9.824218-2.804688-2.425782-6.726563-3.101563-10.183594-1.75-17.476563 6.839844-33.105469 20.582031-44.007813 38.695312-2.824219 4.699219-5.183593 9.476563-7.03125 14.167969-14.835937-15.539063-31.941406-17.613281-32.929687-17.71875-3.527344-.382813-6.980469 1.152344-9.09375 3.996094-2.113282 2.84375-2.558594 6.617187-1.175782 9.882812.496094 1.171875 11.90625 28.921875-2.894531 59.777344-1.824219 2.890625-3.472656 5.871094-4.90625 8.863281-.125.246094-.238281.492188-.34375.738282-5.355469 11.484374-8.066406 23.757812-8.066406 36.488281 0 19.28125 6.339844 37.101562 17.042969 51.503906-14.25-6.445313-27.644532-14.875-39.714844-25.117187-4.210938-3.574219-10.523438-3.058594-14.09375 1.152343-3.574219 4.210938-3.058594 10.523438 1.152344 14.097657 33.296875 28.25 75.59375 44.179687 119.101562 44.859374 1.007813.015626 2.007813.023438 3.011719.023438h.019531c.054688 0 .113282-.003906.171875-.003906 43.8125-.042969 85.816407-15.023438 119.617188-42.523438 20.585937 21.25 47.59375 36.457032 78.328125 42.347656.617187.121094 1.25.179688 1.878906.179688s1.261719-.058594 1.882812-.179688c69.601563-13.335937 120.117188-74.453124 120.117188-145.324218v-93.527344c0-4.375-2.84375-8.242188-7.019531-9.546875zm-375.164063 133.722656c.019532-.042969.039063-.082031.058594-.121093 1.175781-2.480469 2.550781-4.953126 4.09375-7.359376.207031-.328124.398438-.664062.566406-1.007812 10.386719-21.273438 10.808594-41.484375 8.882813-55.859375 5.734375 4.398437 11.824219 11.429687 15.960937 22.625 1.855469 5.03125 7.355469 7.707031 12.457032 6.050781 5.105468-1.648437 7.996093-7.03125 6.554687-12.199218-2.570313-9.230469 7.265625-35.394532 27.488281-51.210938 1.015625 27.074219 15.839844 51.5 30.269532 75.273438 2.796874 4.605468 5.691406 9.367187 8.382812 14.007812.125.214844.257812.425781.394531.628906 2.484375 3.628906 4.609375 7.5 6.308594 11.492188.015625.035156.027344.066406.042969.101562 3.476562 8.207032 5.238281 16.925782 5.238281 25.917969 0 36.550781-29.636719 66.304687-66.144531 66.507813-.292969 0-.582032-.003907-.875-.003907-36.441406-.273437-66.011719-29.996093-66.011719-66.503906 0-9.902344 2.128906-19.4375 6.332031-28.339844zm129.4375 80.136719c10.835938-14.449219 17.261719-32.386719 17.261719-51.796875 0-4.046875-.292969-8.046875-.839844-12 4.933594 14.691406 12.125 28.414063 21.195313 40.71875-11.574219 9.371094-24.222656 17.101563-37.617188 23.078125zm232.746094-110.785156c0 60.652344-42.777344 113.042968-102 125.308594-59.222656-12.265626-102-64.65625-102-125.308594v-86.175782l102-31.84375 102 31.84375zm0 0" data-original="#000000" class="active-path" data-old_color="#000000" fill="#0088C7"/><path d="m387.019531 270.359375-72 22.480469c-4.175781 1.304687-7.019531 5.167968-7.019531 9.542968v64.113282c0 48.46875 32.632812 91.28125 79.351562 104.109375.867188.238281 1.757813.355469 2.648438.355469s1.78125-.117188 2.648438-.355469c46.71875-12.828125 79.351562-55.640625 79.351562-104.109375v-64.113282c0-4.375-2.84375-8.242187-7.019531-9.542968l-72-22.480469c-1.941407-.605469-4.019531-.605469-5.960938 0zm64.980469 39.378906v56.757813c0 38.566406-25.359375 72.738281-62 84.050781-36.640625-11.3125-62-45.484375-62-84.050781v-56.757813l62-19.359375zm0 0" data-original="#000000" class="active-path" data-old_color="#000000" fill="#0088C7"/><path d="m43.898438 416.359375c-2.628907 0-5.210938 1.070313-7.070313 2.929687-1.859375 1.859376-2.929687 4.441407-2.929687 7.070313s1.070312 5.210937 2.929687 7.070313c1.859375 1.859374 4.441406 2.929687 7.070313 2.929687 2.628906 0 5.210937-1.070313 7.070312-2.929687 1.859375-1.859376 2.929688-4.441407 2.929688-7.070313s-1.070313-5.210937-2.929688-7.070313c-1.859375-1.859374-4.441406-2.929687-7.070312-2.929687zm0 0" data-original="#000000" class="active-path" data-old_color="#000000" fill="#0088C7"/></g> </svg>
